<?xml version="1.0" encoding="iso-8859-1"?>
<!-- Uploaded to: SVG Repo, www.svgrepo.com, Transformed by: SVG Repo Mixer Tools -->
<svg fill="#000000" height="800px" width="800px" version="1.1" id="Layer_1" xmlns="http://www.w3.org/2000/svg" xmlns:xlink="http://www.w3.org/1999/xlink" 
	 viewBox="0 0 512.001 512.001" xml:space="preserve">
<g>
	<g>
		<path d="M174.422,101.236c-46.776,0-84.832,38.056-84.832,84.832c0,46.775,38.056,84.831,84.832,84.831
			s84.832-38.056,84.832-84.831C259.254,139.292,221.198,101.236,174.422,101.236z M174.422,237.772
			c-28.509,0-51.704-23.194-51.704-51.702c0-28.509,23.194-51.704,51.704-51.704c28.509,0,51.704,23.194,51.704,51.704
			C226.125,214.577,202.931,237.772,174.422,237.772z"/>
	</g>
</g>
<g>
	<g>
		<path d="M511.674,350.546c-0.95-7.209-3.912-13.84-8.324-19.272c0.741-6.959-0.385-14.135-3.515-20.696
			c-3.117-6.536-7.983-11.941-13.873-15.759c-1.445-6.848-4.734-13.322-9.739-18.596c-4.936-5.201-11.236-8.894-18.078-10.727
			c-3.49-6.051-8.611-11.183-14.987-14.646c-6.273-3.406-13.42-5.016-20.525-4.628c-5.188-4.673-11.641-7.966-18.774-9.288
			c-6.775-1.258-13.968-0.719-20.852,1.93c-6.325-2.825-13.53-3.98-20.81-3.022c-7.193,0.947-13.81,3.899-19.235,8.291
			c-1.356-0.142-2.726-0.215-4.107-0.215c-1.311,0-2.623,0.076-3.929,0.212c-0.163-1.619-0.416-3.228-0.77-4.817
			c7.174-6.15,12.208-14.723,13.817-24.406c1.609-9.68-0.381-19.421-5.181-27.561c4.923-8.067,7.061-17.777,5.599-27.481
			c-1.462-9.703-6.364-18.353-13.445-24.612c2.19-9.192,1.222-19.088-3.166-27.864c-4.429-8.859-11.694-15.59-20.399-19.333
			c-0.774-9.392-4.75-18.472-11.617-25.445c-6.746-6.851-15.823-11.127-25.355-12.041c-3.635-8.712-10.228-16.134-18.929-20.649
			c-8.24-4.278-18.099-5.8-27.842-3.622c-6.148-7.156-14.709-12.176-24.373-13.783c-9.497-1.576-19.216,0.23-27.552,5.149
			c-8.437-5.161-18.202-6.969-27.494-5.568c-9.687,1.459-18.322,6.346-24.578,13.408c-9.664-2.309-19.552-0.968-27.897,3.204
			c-8.764,4.381-15.469,11.7-19.235,20.353c-9.625,0.745-18.596,4.822-25.543,11.666c-6.974,6.869-11.086,15.893-11.999,25.276
			c-8.766,3.621-16.142,10.249-20.689,19.006c-4.521,8.707-5.64,18.587-3.589,27.812c-7.175,6.15-12.208,14.723-13.817,24.406
			c-1.609,9.68,0.381,19.421,5.181,27.561c-4.923,8.066-7.061,17.777-5.599,27.48c1.462,9.703,6.365,18.353,13.445,24.612
			c-2.19,9.192-1.222,19.088,3.166,27.864c4.429,8.859,11.694,15.59,20.399,19.333c0.774,9.392,4.75,18.472,11.617,25.445
			c6.746,6.851,15.823,11.127,25.355,12.041c3.635,8.712,10.228,16.134,18.928,20.649c8.259,4.288,18.119,5.795,27.842,3.622
			c6.148,7.156,14.709,12.176,24.373,13.783c9.498,1.577,19.218-0.23,27.552-5.149c8.437,5.161,18.202,6.969,27.494,5.568
			c9.686-1.459,18.322-6.347,24.578-13.408c3.105,0.742,6.312,1.124,9.569,1.124c4.597,0,9.196-0.799,13.541-2.317
			c-0.899,6.563-0.083,13.132,2.226,19.121c-2.856,6.389-4.001,13.562-3.052,20.77c0.949,7.208,3.912,13.84,8.324,19.273
			c-0.741,6.958,0.384,14.133,3.514,20.694c3.117,6.536,7.983,11.942,13.873,15.759c1.445,6.847,4.735,13.323,9.739,18.596
			c4.935,5.2,11.236,8.894,18.078,10.727c3.49,6.051,8.611,11.183,14.988,14.647c6.273,3.406,13.42,5.015,20.524,4.628
			c5.188,4.673,11.641,7.966,18.774,9.288c6.746,1.251,13.94,0.73,20.852-1.93c6.309,2.816,13.512,3.982,20.81,3.022
			c7.193-0.947,13.81-3.899,19.235-8.291c7.252,0.764,14.447-0.547,20.745-3.551c6.542-3.12,11.919-7.967,15.719-13.82
			c6.947-1.455,13.379-4.807,18.629-9.788c5.26-4.991,8.877-11.266,10.684-18.008c6.088-3.501,11.214-8.658,14.691-15.061
			c3.469-6.39,4.969-13.497,4.594-20.484c4.69-5.195,7.997-11.661,9.322-18.811c1.325-7.148,0.557-14.37-1.961-20.9
			C511.477,364.927,512.624,357.756,511.674,350.546z M274.629,287.812c-2.345,2.31-5.875,2.909-8.842,1.522l-19.885-9.286
			c-0.539-0.253-1.116-0.377-1.692-0.377c-0.82,0-1.637,0.253-2.328,0.746c-1.175,0.84-1.805,2.248-1.651,3.683l2.353,21.818
			c0.352,3.265-1.363,6.406-4.3,7.875c-2.942,1.47-6.481,0.954-8.88-1.284l-16.043-14.974c-0.752-0.702-1.732-1.077-2.73-1.077
			c-0.404,0-0.811,0.061-1.207,0.187c-1.377,0.436-2.412,1.58-2.709,2.993l-4.504,21.478c-0.674,3.215-3.275,5.671-6.523,6.16
			c-0.392,0.06-0.784,0.088-1.173,0.088c-2.827,0-5.476-1.527-6.875-4.053l-10.631-19.198c-0.7-1.263-2.025-2.052-3.47-2.063
			c-0.01,0-0.02,0-0.03,0c-1.432,0-2.757,0.765-3.471,2.01l-10.921,19.034c-1.417,2.469-4.035,3.95-6.817,3.95
			c-0.427,0-0.859-0.035-1.29-0.107c-3.24-0.539-5.803-3.035-6.429-6.258l-4.177-21.544c-0.275-1.418-1.292-2.576-2.662-3.034
			c-0.414-0.138-0.841-0.205-1.264-0.205c-0.977,0-1.938,0.359-2.686,1.035l-16.268,14.729c-2.433,2.202-5.981,2.664-8.898,1.15
			c-2.915-1.513-4.582-4.679-4.18-7.938l2.685-21.781c0.177-1.433-0.433-2.85-1.595-3.708c-0.7-0.517-1.535-0.782-2.376-0.782
			c-0.555,0-1.113,0.115-1.637,0.35l-20.024,8.98c-2.989,1.341-6.508,0.689-8.818-1.656c-2.305-2.34-2.912-5.866-1.523-8.841
			l9.284-19.885c0.611-1.309,0.469-2.845-0.371-4.02c-0.755-1.057-1.972-1.674-3.254-1.674c-0.142,0-0.286,0.008-0.43,0.023
			l-21.818,2.353c-0.283,0.031-0.565,0.045-0.846,0.045c-2.952,0-5.687-1.662-7.029-4.345c-1.469-2.937-0.956-6.479,1.284-8.88
			l14.974-16.043c0.985-1.056,1.325-2.561,0.889-3.937c-0.436-1.377-1.58-2.412-2.993-2.709l-21.478-4.504
			c-3.215-0.674-5.67-3.275-6.16-6.523c-0.489-3.247,1.092-6.457,3.966-8.048l19.198-10.631c1.263-0.699,2.052-2.025,2.063-3.47
			s-0.758-2.782-2.01-3.501l-19.034-10.921c-2.849-1.634-4.381-4.868-3.843-8.108c0.538-3.24,3.033-5.803,6.258-6.428l21.543-4.179
			c1.418-0.275,2.577-1.292,3.033-2.662c0.457-1.369,0.139-2.879-0.829-3.95l-14.729-16.268c-2.204-2.435-2.662-5.983-1.15-8.897
			c1.363-2.626,4.068-4.239,6.975-4.239c0.319,0,0.642,0.02,0.964,0.06l21.781,2.685c0.163,0.02,0.328,0.03,0.49,0.03
			c1.26,0,2.458-0.596,3.218-1.625c0.858-1.162,1.023-2.696,0.432-4.013l-8.98-20.024c-1.344-2.996-0.684-6.512,1.656-8.817
			c1.503-1.481,3.496-2.26,5.518-2.26c1.125,0,2.259,0.242,3.324,0.738l19.885,9.284c0.539,0.252,1.116,0.375,1.692,0.375
			c0.82,0,1.637-0.253,2.328-0.747c1.175-0.84,1.805-2.248,1.651-3.683l-2.353-21.818c-0.352-3.265,1.363-6.406,4.3-7.874
			c1.116-0.558,2.319-0.83,3.514-0.83c1.95,0,3.876,0.724,5.366,2.115l16.043,14.974c0.752,0.701,1.732,1.076,2.73,1.076
			c0.404,0,0.811-0.061,1.207-0.187c1.377-0.436,2.412-1.58,2.709-2.993l4.504-21.478c0.675-3.215,3.275-5.671,6.523-6.16
			c0.392-0.06,0.784-0.088,1.173-0.088c2.827,0,5.476,1.527,6.875,4.053l10.631,19.199c0.699,1.263,2.025,2.052,3.47,2.063
			c0.01,0,0.02,0,0.03,0c1.432,0,2.756-0.765,3.471-2.01l10.921-19.034c1.417-2.469,4.035-3.95,6.817-3.95
			c0.427,0,0.859,0.035,1.29,0.107c3.24,0.539,5.803,3.035,6.429,6.258l4.177,21.545c0.275,1.418,1.292,2.576,2.662,3.033
			c0.414,0.138,0.841,0.205,1.264,0.205c0.977,0,1.938-0.359,2.686-1.035l16.268-14.728c2.435-2.204,5.984-2.662,8.898-1.15
			c2.915,1.513,4.582,4.679,4.18,7.938l-2.685,21.781c-0.177,1.433,0.433,2.85,1.595,3.708c1.164,0.859,2.698,1.021,4.013,0.432
			l20.024-8.98c1.034-0.464,2.129-0.689,3.216-0.689c2.063,0,4.092,0.812,5.602,2.346c2.305,2.34,2.912,5.866,1.523,8.841
			L268.4,114.59c-0.611,1.309-0.469,2.845,0.371,4.02c0.755,1.057,1.972,1.674,3.254,1.674c0.142,0,0.286-0.008,0.43-0.023
			l21.818-2.353c0.283-0.031,0.565-0.045,0.846-0.045c2.952,0,5.687,1.662,7.029,4.345c1.469,2.937,0.956,6.479-1.284,8.88
			l-14.974,16.043c-0.985,1.056-1.325,2.561-0.889,3.938c0.436,1.377,1.58,2.412,2.993,2.708l21.478,4.504
			c3.215,0.674,5.67,3.275,6.16,6.523c0.489,3.247-1.092,6.457-3.965,8.048l-19.198,10.631c-1.263,0.699-2.052,2.025-2.063,3.47
			s0.758,2.782,2.01,3.501l19.034,10.921c2.849,1.634,4.381,4.868,3.843,8.108c-0.538,3.24-3.034,5.803-6.258,6.428l-21.543,4.179
			c-1.418,0.275-2.577,1.292-3.034,2.662c-0.457,1.369-0.139,2.879,0.829,3.95l14.729,16.268c2.204,2.435,2.662,5.983,1.15,8.897
			c-1.52,2.929-4.695,4.581-7.939,4.181l-21.781-2.685c-0.163-0.02-0.327-0.03-0.489-0.03c-1.26,0-2.459,0.596-3.219,1.625
			c-0.858,1.162-1.023,2.696-0.432,4.013l8.98,20.024C277.629,281.99,276.969,285.506,274.629,287.812z M462.223,372.545
			l13.199,7.902c1.976,1.183,3.007,3.469,2.587,5.732c-0.42,2.264-2.202,4.028-4.47,4.424l-15.154,2.647
			c-0.997,0.174-1.823,0.872-2.161,1.826s-0.136,2.016,0.53,2.779l10.111,11.595c1.513,1.735,1.788,4.228,0.69,6.251
			c-1.108,2.04-3.36,3.148-5.619,2.826l-15.23-2.164c-0.991-0.141-1.998,0.258-2.619,1.069c-0.616,0.804-0.752,1.876-0.354,2.807
			l6.034,14.151c0.903,2.117,0.394,4.574-1.275,6.159c-1.672,1.587-4.152,1.963-6.217,0.952l-13.817-6.765
			c-0.912-0.447-1.992-0.363-2.821,0.208c-0.834,0.573-1.295,1.552-1.205,2.56l1.365,15.323c0.204,2.294-1.038,4.471-3.116,5.463
			c-2.073,0.989-4.55,0.59-6.206-1.016l-11.049-10.704c-0.724-0.701-1.769-0.964-2.747-0.675c-0.971,0.287-1.711,1.076-1.937,2.063
			l-3.437,14.995c-0.515,2.244-2.37,3.932-4.652,4.233c-2.281,0.301-4.511-0.849-5.589-2.884l-7.201-13.595
			c-0.474-0.894-1.393-1.464-2.405-1.491c-0.024,0-0.049-0.001-0.073-0.001c-0.984,0-1.898,0.517-2.406,1.364l-7.902,13.2
			c-1.195,1.995-3.494,3.005-5.732,2.587c-2.264-0.42-4.028-2.202-4.424-4.47l-2.648-15.154c-0.174-0.997-0.872-1.823-1.826-2.161
			c-0.951-0.338-2.013-0.138-2.779,0.53l-11.594,10.111c-1.733,1.511-4.226,1.789-6.251,0.69c-2.023-1.099-3.151-3.339-2.826-5.619
			l2.166-15.23c0.142-1.003-0.266-2.003-1.069-2.62c-0.799-0.614-1.873-0.753-2.807-0.354l-14.151,6.033
			c-2.108,0.899-4.567,0.401-6.159-1.275c-1.585-1.67-1.964-4.149-0.952-6.216l6.766-13.817c0.445-0.909,0.365-1.988-0.208-2.823
			c-0.526-0.765-1.394-1.216-2.311-1.216c-0.083,0-0.166,0.003-0.248,0.011l-15.323,1.365c-2.336,0.206-4.489-1.074-5.463-3.116
			c-0.992-2.078-0.586-4.553,1.016-6.207l10.704-11.049c0.705-0.727,0.962-1.777,0.675-2.747s-1.076-1.712-2.063-1.937
			l-14.995-3.437c-2.244-0.515-3.931-2.37-4.233-4.652c-0.301-2.283,0.849-4.511,2.884-5.589l13.595-7.201
			c0.894-0.474,1.464-1.393,1.491-2.405c0.026-1.013-0.495-1.96-1.363-2.48l-13.199-7.902c-1.976-1.183-3.007-3.469-2.587-5.732
			c0.42-2.264,2.202-4.027,4.47-4.424l15.154-2.647c0.997-0.174,1.823-0.872,2.161-1.826c0.338-0.954,0.136-2.016-0.53-2.779
			l-10.111-11.595c-1.513-1.735-1.788-4.228-0.69-6.251c1.108-2.04,3.36-3.149,5.619-2.827l15.23,2.164
			c0.993,0.142,1.999-0.259,2.619-1.069c0.616-0.804,0.752-1.876,0.354-2.807l-6.034-14.151c-0.903-2.117-0.394-4.574,1.277-6.159
			c1.672-1.587,4.152-1.963,6.217-0.952l13.816,6.765c0.912,0.447,1.992,0.363,2.823-0.208c0.834-0.573,1.294-1.552,1.205-2.56
			l-1.365-15.323c-0.204-2.294,1.038-4.471,3.116-5.463c2.075-0.989,4.551-0.589,6.206,1.016l11.049,10.704
			c0.724,0.701,1.769,0.964,2.749,0.675c0.971-0.287,1.711-1.076,1.937-2.063l3.437-14.995c0.574-2.505,2.803-4.28,5.372-4.28
			c2.021,0,3.905,1.112,4.869,2.932l7.201,13.595c0.474,0.896,1.392,1.464,2.405,1.491c0.025,0,0.05,0.001,0.075,0.001
			c0.984,0,1.898-0.517,2.405-1.364l7.902-13.199c1.173-1.959,3.448-3.009,5.732-2.587c2.264,0.42,4.028,2.202,4.424,4.47
			l2.648,15.154c0.174,0.997,0.872,1.823,1.826,2.161c0.951,0.338,2.013,0.138,2.779-0.53l11.595-10.111
			c1.733-1.511,4.225-1.789,6.251-0.69c2.023,1.099,3.151,3.339,2.826,5.619l-2.166,15.23c-0.142,1.003,0.266,2.003,1.069,2.62
			c0.801,0.615,1.875,0.753,2.807,0.354l14.151-6.033c2.109-0.9,4.568-0.4,6.159,1.275c1.585,1.67,1.964,4.149,0.952,6.217
			l-6.766,13.816c-0.445,0.909-0.365,1.988,0.208,2.823c0.526,0.765,1.394,1.216,2.311,1.216c0.083,0,0.166-0.003,0.248-0.011
			l15.323-1.365c2.339-0.208,4.49,1.077,5.463,3.116c0.992,2.078,0.586,4.553-1.016,6.207l-10.704,11.049
			c-0.705,0.728-0.962,1.777-0.675,2.749c0.287,0.971,1.076,1.711,2.063,1.937l14.995,3.437c2.244,0.515,3.931,2.37,4.233,4.652
			c0.3,2.283-0.849,4.511-2.884,5.589l-13.595,7.201c-0.894,0.474-1.464,1.394-1.491,2.405
			C460.833,371.077,461.354,372.026,462.223,372.545z"/>
	</g>
</g>
<g>
	<g>
		<path d="M380.777,303.528c-35.839-0.634-64.948,27.823-65.606,63.212c-0.66,35.514,27.696,64.946,63.212,65.605
			c0.406,0.008,0.808,0.012,1.214,0.012c16.956,0,32.968-6.544,45.086-18.425c12.134-11.896,18.99-27.808,19.306-44.798
			C444.65,333.62,416.293,304.189,380.777,303.528z M378.999,399.224c-17.252-0.321-31.026-14.617-30.706-31.867
			c0.314-16.919,14.404-30.989,31.867-30.707c17.252,0.321,31.026,14.617,30.706,31.868
			C410.548,385.653,396.146,399.528,378.999,399.224z"/>
	</g>
</g>
</svg>