<?xml version="1.0" encoding="utf-8"?>
<!-- Svg Vector Icons : http://www.onlinewebfonts.com/icon -->
<!DOCTYPE svg PUBLIC "-//W3C//DTD SVG 1.1//EN" "http://www.w3.org/Graphics/SVG/1.1/DTD/svg11.dtd">
<svg version="1.1" xmlns="http://www.w3.org/2000/svg" xmlns:xlink="http://www.w3.org/1999/xlink" x="0px" y="0px" viewBox="0 0 1000 1000" enable-background="new 0 0 1000 1000" xml:space="preserve">
<metadata> Svg Vector Icons : http://www.onlinewebfonts.com/icon </metadata>
<g><g transform="translate(0.000000,512.000000) scale(0.100000,-0.100000)"><path d="M3280.4,5005.2c-534.3-67-1039.8-248.9-1470.7-528.5C800.6,3819.9,203.2,2669,262.5,1491.3C298.9,754.1,432.9,279.2,973-1026.8c298.7-725.8,438.5-1177.7,488.3-1570.2c11.5-93.8,19.2-589.8,19.2-1171.9V-4780h155.1h153.2l-7.7,1097.2c-7.7,1193-9.6,1225.5-128.3,1669.8c-84.3,321.7-191.5,616.6-450,1244.7C844.6,106.9,731.7,434.3,639.8,880.5c-122.5,601.3-95.7,1225.5,76.6,1756c30.6,97.7,109.1,279.6,170.4,406c419.4,844.5,1196.8,1430.4,2148.5,1621.9c178.1,36.4,281.5,44,580.2,44c218.3,0,421.3-9.6,507.5-24.9c143.6-24.9,494-113,522.8-132.1c9.6-5.7-42.1-49.8-114.9-97.7c-499.8-333.2-919.2-817.7-1183.4-1367.3c-185.8-386.8-277.7-725.8-317.9-1164.3l-21.1-239.4l-457.7-995.8l-457.7-995.8v-176.2c0-195.3,19.2-258.5,90-291.1c28.7-13.4,191.5-21.1,436.6-21.1h390.6l5.8-714.2c5.7-710.5,7.7-712.4,55.5-838.8c70.8-183.8,139.8-293,266.2-419.3c174.3-174.3,400.2-287.2,637.7-316l109.2-13.4v151.3v153.2l-101.5,11.5c-302.6,36.4-536.2,225.9-626.2,509.4c-36.4,113-38.3,174.3-38.3,884.7c0,517-7.7,777.5-21.1,808.1c-36.4,80.4-90,90-505.5,90h-392.6v63.2c0,42.1,151.3,392.6,459.6,1058.9c438.5,947.9,459.6,999.6,459.6,1108.7c0,139.8,30.6,390.6,68.9,580.2c76.6,369.6,270,810,499.8,1133.6c241.3,337,651.1,700.9,995.8,884.7l120.6,63.2l120.6-63.2c344.7-183.8,756.4-549.6,993.8-884.7c233.6-327.5,425.1-764,501.7-1133.6c38.3-191.5,68.9-440.4,68.9-580.2c0-109.2,21.1-158.9,459.6-1110.6c302.5-656.8,459.6-1016.8,459.6-1057v-63.2h-392.6c-415.5,0-469.2-9.6-505.5-90c-13.4-30.6-21.1-291.1-21.1-810c0-721.9-1.9-771.7-40.2-884.7c-74.7-231.7-241.3-398.3-473-473c-109.2-36.4-166.6-40.2-654.9-40.2c-566.8,0-610.8-5.7-649.2-90c-15.3-30.6-21.1-335.1-21.1-972.8V-4780h153.2h153.2v840.7v840.6l484.5,7.7c459.6,7.6,488.3,9.6,608.9,55.5c183.8,70.8,293,139.8,419.4,266.2c126.4,126.4,195.3,235.5,266.2,419.3c47.9,126.4,49.8,128.3,55.5,840.7l5.7,712.4h390.7c245.1,0,407.9,7.7,436.6,21.1c70.9,32.6,90,95.8,90,291.1v176.2l-455.7,988.1l-457.7,986.2l-23,248.9c-40.2,448.1-132.1,783.2-317.9,1171.9c-264.3,549.6-683.6,1034.1-1183.4,1367.3c-72.8,47.9-124.5,91.9-114.9,97.7c32.5,19.2,316,91.9,469.2,120.6c88.1,15.3,279.6,34.5,427,40.2c549.6,23,1028.3-78.5,1512.8-319.8c842.6-421.3,1434.3-1202.6,1618.1-2139c78.5-400.2,70.8-909.6-21.1-1367.3c-86.2-430.9-208.7-790.9-570.7-1671.7c-239.4-578.3-360-913.4-442.3-1225.5c-118.7-446.2-120.6-478.7-128.3-1671.7L8219-4780h153.2h155.1v1011.1c0,582.1,7.7,1078.1,19.2,1171.9c49.8,392.5,189.6,844.5,488.3,1570.2c453.8,1097.2,586,1507,674.1,2087.3c40.2,268.1,44.1,838.7,7.7,1062.8c-120.6,758.3-457.7,1409.4-1001.5,1936c-201.1,195.3-308.3,281.5-513.2,415.5c-909.6,589.8-2022.1,708.5-3010.2,319.8l-187.7-72.8l-185.8,72.8c-365.7,143.6-695.1,208.7-1116.4,220.2C3548.5,5018.6,3358.9,5014.8,3280.4,5005.2z"/><path d="M4237.9,1721.1c0-256.6,15.3-317.9,90-352.3c30.6-13.4,254.7-21.1,676-21.1c421.3,0,645.3,7.7,676,21.1c74.7,34.5,90,95.7,90,352.3v239.4h-153.2h-153.2v-153.2v-153.2h-459.6h-459.6v153.2v153.2h-153.2h-153.2V1721.1z"/></g></g>
</svg>